<?xml version="1.0" encoding="utf-8"?>
<!-- Generator: Adobe Illustrator 16.0.0, SVG Export Plug-In . SVG Version: 6.00 Build 0)  -->
<!DOCTYPE svg PUBLIC "-//W3C//DTD SVG 1.1//EN" "http://www.w3.org/Graphics/SVG/1.1/DTD/svg11.dtd">
<svg version="1.1" id="Capa_1" xmlns="http://www.w3.org/2000/svg" xmlns:xlink="http://www.w3.org/1999/xlink" x="0px" y="0px"
	 width="452.892px" height="68.986px" viewBox="-94.747 0 452.892 68.986" enable-background="new -94.747 0 452.892 68.986"
	 xml:space="preserve">
<g>
	<path fill="#FFFFFF" d="M-94.747,8.041h8.992c3.629,0,6.056,0.764,7.278,2.286c0.921,1.144,1.508,2.542,1.759,4.195
		c0.25,1.655,0.377,4.056,0.377,7.203c0,3.15-0.367,5.722-1.098,7.716c-0.734,1.996-1.992,3.233-3.774,3.715
		c0.701,0.12,1.292,0.335,1.774,0.646c0.48,0.312,0.912,0.837,1.293,1.579c1.183,2.306,1.774,7.981,1.774,17.023
		c0,3.75,0.033,5.911,0.105,6.481c0.071,0.573,0.256,1.271,0.556,2.092h-4.452c-0.321-0.603-0.511-1.741-0.572-3.415
		c-0.06-1.674-0.09-4.345-0.09-8.016v-5.833c0-3.688-0.225-6.034-0.676-7.038c-0.451-1.002-1.79-1.504-4.015-1.504l-4.752-0.302
		v26.108h-4.481V8.041z M-80.82,20.824c0-2.668-0.125-4.622-0.376-5.866c-0.252-1.242-0.674-2.085-1.264-2.526
		c-0.592-0.441-1.529-0.661-2.813-0.661h-5.022v20.09h4.693c1.524,0,2.561-0.259,3.113-0.781c0.551-0.521,0.967-1.388,1.248-2.603
		c0.28-1.211,0.421-3.634,0.421-7.261V20.824z"/>
	<path fill="#FFFFFF" d="M-67.586,8.041h13.986v3.491h-9.504v20.691h8.933v3.64h-8.933v21.566h9.415v3.548h-13.896V8.041z"/>
	<path fill="#FFFFFF" d="M-48.128,16.159c0.301-2.864,1.147-5.045,2.542-6.539c1.394-1.495,3.576-2.241,6.542-2.241
		c2.968,0,5.033,0.742,6.196,2.226c0.642,0.802,1.143,1.605,1.503,2.405c0.763,1.624,1.153,5.495,1.174,11.611v2.977h-4.601v-3.309
		c0-4.65-0.15-7.468-0.451-8.452c-0.3-0.982-0.613-1.724-0.933-2.225c-0.582-0.923-1.624-1.384-3.127-1.384
		c-3.048,0-4.572,2.839-4.572,8.511c0,1.985,0.19,3.335,0.57,4.046c0.381,0.711,0.668,1.268,0.858,1.669
		c0.189,0.403,1.469,1.785,3.833,4.152l2.887,2.917c4.27,4.393,6.407,9.43,6.407,15.113c0,5.686-0.819,9.429-2.454,11.233
		c-1.632,1.806-4.054,2.706-7.261,2.706c-4.934,0-7.772-2.976-8.512-8.933c-0.26-2.004-0.39-4.47-0.39-7.399V39.74h4.571v5.413
		c0,4.774,0.317,8.061,0.947,9.867c0.634,1.803,1.922,2.707,3.866,2.707c1.944,0,3.184-0.588,3.714-1.76
		c0.532-1.173,0.823-2.591,0.875-4.258c0.049-1.662,0.075-3.446,0.075-5.352c0-3.932-1.554-7.409-4.662-10.438l-3.067-2.916
		c-2.688-2.626-4.483-4.838-5.385-6.632c-0.903-1.793-1.354-3.619-1.354-5.474C-48.338,19.045-48.268,17.467-48.128,16.159z"/>
	<path fill="#FFFFFF" d="M-25.96,8.041h14.947v3.491h-4.962v49.447h-4.452v-49.45h-5.533V8.041z"/>
	<path fill="#FFFFFF" d="M0.387,8.041h4.572l9.415,52.936h-4.333L8.298,50.239H-2.289l-1.595,10.738h-4.24L0.387,8.041z
		 M7.695,46.539L2.822,16.584h-0.06l-4.48,29.956H7.695z"/>
	<path fill="#FFFFFF" d="M33.952,8.041h4.479v39.34c0,4.976-0.628,8.588-1.893,10.843c-1.261,2.259-3.718,3.384-7.369,3.384
		c-3.649,0-6.118-1.133-7.414-3.398c-1.29-2.265-1.939-5.876-1.939-10.828V8.041h4.479V47.23c0,3.671,0.163,6.117,0.482,7.34
		c0.603,2.226,2.007,3.34,4.213,3.34c1.804,0,3.083-0.518,3.835-1.551c0.753-1.031,1.129-4.064,1.129-9.098V8.041H33.952z"/>
	<path fill="#FFFFFF" d="M47.636,8.041h8.993c3.628,0,6.058,0.764,7.281,2.286c0.92,1.144,1.506,2.542,1.756,4.195
		c0.253,1.655,0.379,4.056,0.379,7.203c0,3.15-0.366,5.722-1.097,7.716c-0.735,1.996-1.99,3.233-3.776,3.715
		c0.703,0.12,1.294,0.335,1.776,0.646c0.48,0.312,0.911,0.837,1.293,1.579c1.182,2.306,1.774,7.981,1.774,17.023
		c0,3.75,0.035,5.911,0.104,6.481c0.069,0.573,0.258,1.271,0.559,2.092h-4.452c-0.323-0.603-0.513-1.741-0.574-3.415
		c-0.058-1.674-0.087-4.345-0.087-8.016v-5.833c0-3.688-0.227-6.034-0.681-7.038c-0.451-1.002-1.787-1.504-4.012-1.504l-4.752-0.302
		v26.108h-4.484V8.041z M61.565,20.824c0-2.668-0.129-4.622-0.377-5.866c-0.25-1.242-0.674-2.085-1.265-2.526
		c-0.591-0.441-1.528-0.661-2.81-0.661h-5.022v20.09h4.69c1.524,0,2.559-0.259,3.113-0.781c0.553-0.521,0.968-1.388,1.249-2.603
		c0.281-1.211,0.423-3.634,0.423-7.261L61.565,20.824L61.565,20.824z"/>
	<path fill="#FFFFFF" d="M80.181,8.041h4.568l9.417,52.936h-4.329l-1.743-10.738h-10.59l-1.597,10.738h-4.237L80.181,8.041z
		 M87.49,46.539l-4.871-29.956h-0.063l-4.484,29.956H87.49z"/>
	<path fill="#FFFFFF" d="M116.331,8.041h3.91v52.936h-3.49l-12.178-39.883l0.302,14.318v25.565h-4.212V8.041h3.129l12.994,40.936
		l-0.453-18.227V8.041H116.331z"/>
	<path fill="#FFFFFF" d="M126.256,8.041h14.949v3.491h-4.963v49.447h-4.451v-49.45h-5.535V8.041L126.256,8.041z"/>
	<path fill="#FFFFFF" d="M146.587,51.557c6.183-4.67,7.171-11.965,7.171-13.132s1.402,0.874,2.472,2.238
		c1.072,1.457,4.861,5.834,4.861,6.71c0,0.875,0,8.657,4.283,9.923c5.605,1.654,11.454-2.919,13.434-4.572
		c1.894-1.653,2.305,0.195,1.15,1.17c-1.15,1.069-2.883,2.431-5.354,3.887c-2.391,1.46-6.263,3.697-9.887,2.82
		c-3.628-0.874-6.098-4.472-6.018-11.769c0-1.555-3.789-3.21-4.614-2.82c-0.739,0.388-4.529,5.545-7.742,7.391
		c0,0-0.413,0.293-0.826,0c-0.326-0.289-0.576-0.582,0.578-1.456L146.587,51.557z"/>
	<path fill="#FFFFFF" d="M204.841,52.722c-4.532,4.185-8.406,7.587-18.539,7.978c-9.063,0.387-13.103-9.435-6.591-16.635
		c6.343-7.1,11.534-6.518,12.687-4.376c1.154,2.139,0.495,4.086-1.4,6.807c-1.894,2.626-10.135,6.906-10.135,6.906
		c0.824,1.851,1.646,4.281,6.183,4.964c9.553,1.456,16.723-6.518,17.713-6.908C205.994,51.265,204.841,52.722,204.841,52.722z
		 M187.785,46.497c2.307-2.528,2.801-4.57,1.4-5.058c-1.319-0.487-8.076,4.377-8.734,8.655
		C180.289,50.583,185.478,49.123,187.785,46.497z"/>
	<path fill="#FFFFFF" d="M211.511,41.148c0,0.779-4.365,13.52-3.378,14.202c0.906,0.681,3.132,0.39,6.426-2.043
		c3.296-2.336,7.993-7.394,8.982-10.992c0.989-3.503,2.802-4.862,3.707-4.185c0.908,0.682-0.657,4.865-0.657,4.865
		s2.307,6.42,7.004,7.196c4.861,0.974,7.498-0.097,9.394-1.36c1.813-1.168,2.801,2.042-2.721,3.208
		c-5.601,1.072-9.557-0.774-12.276-2.624c-2.39-1.654-3.459-3.989-3.707-3.793c-0.247,0.097-5.604,6.711-8.817,9.045
		c-3.213,2.435-7.578,6.908-9.722,6.032c-2.142-0.878-1.236-4.765,0-8.754c1.813-5.837,0.906-12.452,3.133-11.871
		C210.113,40.37,211.511,40.37,211.511,41.148z"/>
	<path fill="#FFFFFF" d="M251.061,41.927c0.163,0.583,0.163,1.264-0.083,1.945c-0.247,0.68-0.66,1.458-1.236,2.431
		c-0.657,0.975-1.319,2.237-2.059,3.891c-0.824,1.753-1.072,3.114-0.909,4.184c0.167,1.07,0.663,1.85,1.402,2.432
		c0.741,0.582,1.565,1.072,2.802,1.072c2.801,0.095,4.116-0.39,5.358-0.877c1.235-0.388,2.553-1.17,3.705-1.852
		c1.239-0.679,2.637-1.459,3.463-2.139c1.148-0.976,2.307-1.166,2.635-1.068c0.496,0.287,0.083,0.97,0,1.068
		c-0.163,0.195-0.741,0.68-1.732,1.266c-0.987,0.583-2.224,1.264-3.539,2.042c-1.404,0.68-2.803,1.557-4.369,2.334
		c-3.212,1.557-4.366,2.044-7.992,1.945c-1.317,0-2.554-0.585-3.624-1.165c-0.991-0.586-1.73-1.268-1.979-2.24
		c-0.164-0.682-0.164-1.652,0-2.82c0.249-1.166,0.497-2.337,0.988-3.793c0.411-1.264,0.907-2.627,1.483-3.989
		c0.578-1.362,1.152-2.529,1.732-3.599c0.576-1.07,1.069-1.849,1.48-2.531c0.413-0.582,0.743-0.776,0.908-0.68
		C250.318,40.663,250.894,41.342,251.061,41.927z M254.85,25.875c-0.082-0.486-0.082-1.069,0.083-1.75
		c0.161-0.681,0.33-1.264,0.658-1.944c0.328-0.681,0.574-1.264,0.907-1.85c0.326-0.581,0.658-0.971,1.071-1.361
		c0.243-0.292,0.578-0.486,0.826-0.486c0.326,0.097,0.656,0.195,1.15,0.486c0.41,0.292,0.739,0.584,1.071,1.07
		c0.411,0.39,0.66,0.78,0.741,1.265c0.163,0.485,0.163,0.973-0.081,1.262c-0.249,0.392-0.66,0.974-1.236,1.558
		c-0.578,0.583-1.152,1.169-1.732,1.654c-0.659,0.485-1.233,0.875-1.73,1.069c-0.578,0.39-0.987,0.39-1.072,0.293
		C255.094,26.848,254.85,26.46,254.85,25.875z"/>
	<path fill="#FFFFFF" d="M292.006,52.722c-4.532,4.185-8.403,7.587-18.538,7.978c-9.062,0.387-13.103-9.435-6.592-16.635
		c6.342-7.1,11.535-6.518,12.687-4.376c1.154,2.139,0.496,4.086-1.399,6.807c-1.894,2.626-10.135,6.906-10.135,6.906
		c0.824,1.851,1.647,4.281,6.179,4.964c9.558,1.456,16.724-6.518,17.719-6.908C293.162,51.265,292.006,52.722,292.006,52.722z
		 M274.953,46.497c2.311-2.528,2.8-4.57,1.399-5.058c-1.317-0.487-8.075,4.377-8.732,8.655
		C267.455,50.583,272.646,49.123,274.953,46.497z"/>
	<path fill="#FFFFFF" d="M327.272,41.829c-2.552,1.946-13.346,19.746-18.289,19.746c-1.98,0-2.394-3.503-2.555-6.612
		c-0.084-1.561-0.33-4.089-0.33-6.422c-3.874,6.03-8.158,10.312-10.135,11.865c-2.144,1.654-4.943-1.166-4.943-5.835
		c0-3.794,1.892-11.574,2.885-14.785c0.328-1.068,4.035-1.946,3.787-0.388c-0.739,3.306-3.296,8.364-3.296,12.354
		c0,2.431,2.392,6.418,6.592,1.65c2.641-2.914,6.1-8.851,6.758-10.114c2.225-3.89,2.637-5.252,3.87-3.308
		c0.826,1.265-2.716,10.213-1.15,14.688c0.739,0.974,2.714,1.362,5.273-1.168c4.033-4.181,7.661-10.212,9.557-12.448
		c3.87-4.767,2.801-4.573,3.789-0.585L327.272,41.829z"/>
	<path fill="#FFFFFF" d="M358.083,52.916c-0.738,1.559-7.828,5.156-12.027,6.52c-4.203,1.264-12.276,2.238-16.646,0
		c-4.283-2.236-5.191-7.394-4.448-7.879c7.659-6.519,10.052-8.658,10.3-9.24c0.163-0.585,0.08-1.071,0.163-2.336
		c0.167-1.944,1.317-3.596,2.885-3.309c1.646,0.391,0.328,4.67,0,6.325c-0.25,1.654,1.975,7.099,2.222,10.116
		c0.335,3.016-0.576,4.183-0.247,4.768c0.247,0.58,4.617-0.101,9.149-1.946C354.046,53.989,358.744,51.362,358.083,52.916z
		 M335.263,44.745c-0.332,0.196-6.922,5.643-7.415,6.129c-0.58,0.487-0.496,5.447,3.622,7.686c4.123,2.334,5.438-2.726,5.604-3.892
		C337.322,52.722,335.756,44.552,335.263,44.745z"/>
</g>
</svg>
