<?xml version="1.0" encoding="utf-8"?>
<!-- Generator: Adobe Illustrator 16.0.0, SVG Export Plug-In . SVG Version: 6.00 Build 0)  -->
<!DOCTYPE svg PUBLIC "-//W3C//DTD SVG 1.1//EN" "http://www.w3.org/Graphics/SVG/1.1/DTD/svg11.dtd">
<svg version="1.1" id="Capa_1" xmlns="http://www.w3.org/2000/svg" xmlns:xlink="http://www.w3.org/1999/xlink" x="0px" y="0px"
	 width="495.011px" height="68.986px" viewBox="-97.347 0 495.011 68.986" enable-background="new -97.347 0 495.011 68.986"
	 xml:space="preserve">
<g>
	<path fill="#FFFFFF" d="M-97.347,4.749h10.179c4.108,0,6.854,0.864,8.238,2.587c1.042,1.294,1.707,2.877,1.991,4.748
		c0.283,1.873,0.426,4.591,0.426,8.153c0,3.565-0.416,6.476-1.243,8.733c-0.831,2.259-2.254,3.66-4.272,4.205
		c0.793,0.135,1.463,0.38,2.008,0.731c0.543,0.352,1.032,0.946,1.463,1.788c1.339,2.609,2.009,9.033,2.009,19.268
		c0,4.245,0.038,6.69,0.119,7.337c0.08,0.647,0.29,1.438,0.629,2.367h-5.039c-0.364-0.682-0.579-1.971-0.647-3.865
		c-0.067-1.895-0.102-4.919-0.102-9.072v-6.604c0-4.175-0.255-6.831-0.765-7.966c-0.511-1.135-2.026-1.703-4.545-1.703l-5.379-0.342
		v29.552h-5.072V4.749z M-81.584,19.218c0-3.02-0.142-5.232-0.426-6.64c-0.286-1.406-0.762-2.36-1.43-2.858
		c-0.669-0.5-1.731-0.749-3.184-0.749h-5.685V31.71h5.312c1.725,0,2.898-0.294,3.523-0.884c0.624-0.59,1.095-1.571,1.413-2.946
		c0.317-1.371,0.477-4.114,0.477-8.219V19.218z"/>
	<path fill="#FFFFFF" d="M-66.604,4.749h15.83V8.7h-10.757v23.42h10.111v4.12h-10.111v24.41h10.657v4.017h-15.729V4.749z"/>
	<path fill="#FFFFFF" d="M-44.58,13.938c0.341-3.242,1.299-5.711,2.877-7.402C-40.125,4.844-37.655,4-34.298,4
		c3.359,0,5.697,0.839,7.013,2.519c0.727,0.907,1.294,1.816,1.702,2.722c0.864,1.837,1.305,6.219,1.328,13.142v3.369h-5.208v-3.745
		c0-5.264-0.169-8.453-0.51-9.567c-0.339-1.111-0.693-1.952-1.056-2.519c-0.658-1.045-1.838-1.566-3.54-1.566
		c-3.45,0-5.175,3.214-5.175,9.634c0,2.248,0.215,3.775,0.646,4.58c0.431,0.805,0.756,1.435,0.971,1.89
		c0.214,0.457,1.663,2.021,4.339,4.699l3.268,3.302c4.833,4.971,7.252,10.674,7.252,17.107s-0.927,10.672-2.777,12.714
		c-1.847,2.044-4.589,3.063-8.219,3.063c-5.584,0-8.797-3.368-9.635-10.111c-0.295-2.269-0.442-5.059-0.442-8.375v-6.23h5.174v6.128
		c0,5.403,0.359,9.124,1.071,11.168c0.717,2.041,2.176,3.063,4.375,3.063c2.2,0,3.603-0.664,4.204-1.99
		c0.603-1.329,0.931-2.933,0.99-4.819c0.055-1.883,0.084-3.901,0.084-6.058c0-4.45-1.759-8.386-5.277-11.815l-3.472-3.301
		c-3.042-2.972-5.074-5.476-6.095-7.507c-1.022-2.03-1.532-4.096-1.532-6.196C-44.817,17.204-44.738,15.417-44.58,13.938z"/>
	<path fill="#FFFFFF" d="M-19.488,4.749H-2.57V8.7h-5.616v55.967h-5.04V8.697h-6.263V4.749z"/>
	<path fill="#FFFFFF" d="M10.333,4.749h5.175l10.657,59.917h-4.904l-1.973-12.154H7.305L5.5,64.666H0.701L10.333,4.749z
		 M18.606,48.324L13.09,14.418h-0.068L7.951,48.324H18.606z"/>
	<path fill="#FFFFFF" d="M48.326,4.749h5.069v44.527c0,5.632-0.711,9.722-2.142,12.273c-1.427,2.556-4.208,3.83-8.341,3.83
		c-4.131,0-6.925-1.282-8.391-3.847c-1.461-2.563-2.196-6.65-2.196-12.257V4.749h5.07v44.357c0,4.154,0.184,6.923,0.546,8.308
		c0.682,2.519,2.272,3.78,4.769,3.78c2.042,0,3.489-0.586,4.341-1.755c0.853-1.168,1.278-4.601,1.278-10.298V4.749H48.326z"/>
	<path fill="#FFFFFF" d="M63.813,4.749h10.181c4.107,0,6.856,0.864,8.24,2.587c1.042,1.294,1.705,2.877,1.988,4.748
		c0.287,1.873,0.43,4.591,0.43,8.153c0,3.565-0.416,6.476-1.242,8.733c-0.831,2.259-2.252,3.66-4.273,4.205
		c0.796,0.135,1.465,0.38,2.01,0.731c0.544,0.352,1.032,0.946,1.463,1.788c1.339,2.609,2.008,9.033,2.008,19.268
		c0,4.245,0.041,6.69,0.119,7.337c0.078,0.647,0.291,1.438,0.632,2.367h-5.039c-0.366-0.682-0.581-1.971-0.65-3.865
		c-0.064-1.895-0.099-4.919-0.099-9.072v-6.604c0-4.175-0.256-6.831-0.77-7.966c-0.51-1.135-2.023-1.703-4.542-1.703l-5.379-0.342
		v29.552h-5.076V4.749z M79.58,19.218c0-3.02-0.146-5.232-0.426-6.64c-0.283-1.406-0.764-2.36-1.433-2.858
		c-0.668-0.5-1.73-0.749-3.18-0.749h-5.684V31.71h5.309c1.725,0,2.897-0.294,3.524-0.884c0.625-0.59,1.095-1.571,1.414-2.946
		c0.318-1.371,0.478-4.114,0.478-8.219L79.58,19.218L79.58,19.218z"/>
	<path fill="#FFFFFF" d="M100.651,4.749h5.171l10.658,59.917h-4.899l-1.974-12.154H97.622l-1.809,12.154h-4.796L100.651,4.749z
		 M108.924,48.324l-5.515-33.906h-0.071l-5.075,33.906H108.924z"/>
	<path fill="#FFFFFF" d="M141.57,4.749h4.424v59.917h-3.95l-13.784-45.144l0.343,16.205v28.938h-4.769V4.749h3.542l14.709,46.334
		l-0.514-20.63L141.57,4.749L141.57,4.749z"/>
	<path fill="#FFFFFF" d="M152.802,4.749h16.922V8.7h-5.616v55.967h-5.04V8.697h-6.266V4.749L152.802,4.749z"/>
	<path fill="#FFFFFF" d="M174.651,54.786c6.518-4.922,7.559-12.612,7.559-13.843c0-1.229,1.478,0.922,2.605,2.359
		c1.13,1.536,5.125,6.15,5.125,7.073s0,9.126,4.515,10.461c5.908,1.743,12.074-3.077,14.161-4.82
		c1.996-1.743,2.429,0.206,1.212,1.233c-1.212,1.127-3.038,2.563-5.644,4.098c-2.52,1.538-6.602,3.897-10.423,2.973
		c-3.824-0.921-6.427-4.714-6.344-12.406c0-1.639-3.994-3.384-4.863-2.973c-0.779,0.409-4.775,5.845-8.162,7.791
		c0,0-0.435,0.309-0.87,0c-0.345-0.305-0.607-0.613,0.609-1.535L174.651,54.786z"/>
	<path fill="#FFFFFF" d="M236.058,56.015c-4.777,4.411-8.86,7.998-19.542,8.409c-9.555,0.408-13.813-9.945-6.948-17.535
		c6.687-7.484,12.158-6.87,13.374-4.613c1.216,2.255,0.521,4.308-1.478,7.176c-1.996,2.768-10.683,7.28-10.683,7.28
		c0.869,1.95,1.736,4.513,6.517,5.232c10.071,1.535,17.63-6.87,18.672-7.282C237.274,54.479,236.058,56.015,236.058,56.015z
		 M218.078,49.453c2.432-2.665,2.953-4.818,1.478-5.332c-1.391-0.514-8.514,4.614-9.208,9.124
		C210.175,53.76,215.646,52.222,218.078,49.453z"/>
	<path fill="#FFFFFF" d="M243.089,43.814c0,0.821-4.601,14.252-3.561,14.972c0.956,0.717,3.301,0.41,6.774-2.154
		c3.475-2.462,8.426-7.793,9.468-11.587c1.044-3.692,2.954-5.126,3.909-4.411c0.956,0.719-0.693,5.129-0.693,5.129
		s2.431,6.768,7.383,7.586c5.125,1.026,7.903-0.103,9.901-1.435c1.913-1.23,2.954,2.153-2.867,3.382
		c-5.904,1.131-10.074-0.816-12.94-2.766c-2.52-1.744-3.647-4.205-3.909-3.999c-0.26,0.103-5.907,7.075-9.294,9.535
		c-3.387,2.566-7.989,7.282-10.248,6.358c-2.258-0.925-1.304-5.022,0-9.228c1.912-6.153,0.955-13.127,3.303-12.514
		C241.616,42.994,243.089,42.994,243.089,43.814z"/>
	<path fill="#FFFFFF" d="M284.781,44.635c0.172,0.615,0.172,1.333-0.088,2.051c-0.26,0.717-0.695,1.537-1.303,2.563
		c-0.693,1.027-1.391,2.358-2.17,4.102c-0.869,1.848-1.13,3.283-0.958,4.41c0.175,1.128,0.698,1.949,1.478,2.563
		c0.782,0.613,1.65,1.13,2.953,1.13c2.954,0.1,4.341-0.41,5.649-0.924c1.302-0.409,2.69-1.233,3.906-1.952
		c1.306-0.716,2.779-1.538,3.649-2.255c1.211-1.028,2.433-1.229,2.777-1.126c0.523,0.303,0.089,1.022,0,1.126
		c-0.171,0.206-0.78,0.717-1.825,1.334c-1.042,0.615-2.344,1.332-3.731,2.153c-1.479,0.716-2.954,1.641-4.605,2.46
		c-3.386,1.641-4.604,2.154-8.425,2.051c-1.389,0-2.691-0.616-3.82-1.229c-1.045-0.617-1.824-1.336-2.086-2.361
		c-0.174-0.719-0.174-1.742,0-2.973c0.262-1.229,0.522-2.464,1.041-3.999c0.434-1.332,0.956-2.769,1.564-4.205
		c0.609-1.436,1.215-2.666,1.825-3.793c0.607-1.129,1.127-1.949,1.562-2.669c0.436-0.613,0.782-0.818,0.957-0.716
		C283.998,43.303,284.606,44.019,284.781,44.635z M288.776,27.715c-0.087-0.512-0.087-1.127,0.087-1.845
		c0.171-0.718,0.348-1.333,0.694-2.05c0.346-0.718,0.605-1.333,0.956-1.95c0.345-0.613,0.694-1.024,1.13-1.435
		c0.255-0.307,0.608-0.513,0.87-0.513c0.345,0.103,0.692,0.206,1.214,0.513c0.432,0.308,0.778,0.616,1.129,1.128
		c0.433,0.411,0.694,0.822,0.78,1.333c0.173,0.512,0.173,1.026-0.086,1.331c-0.261,0.413-0.694,1.026-1.302,1.643
		c-0.609,0.614-1.216,1.232-1.826,1.744c-0.696,0.512-1.302,0.922-1.824,1.127c-0.609,0.411-1.042,0.411-1.132,0.309
		C289.034,28.74,288.776,28.331,288.776,27.715z"/>
	<path fill="#FFFFFF" d="M327.943,56.015c-4.776,4.411-8.857,7.998-19.541,8.409c-9.553,0.408-13.812-9.945-6.948-17.535
		c6.686-7.484,12.16-6.87,13.373-4.613c1.217,2.255,0.522,4.308-1.476,7.176c-1.996,2.768-10.683,7.28-10.683,7.28
		c0.869,1.95,1.735,4.513,6.513,5.232c10.075,1.535,17.63-6.87,18.678-7.282C329.163,54.479,327.943,56.015,327.943,56.015z
		 M309.966,49.453c2.436-2.665,2.952-4.818,1.476-5.332c-1.39-0.514-8.512,4.614-9.205,9.124
		C302.062,53.76,307.536,52.222,309.966,49.453z"/>
	<path fill="#FFFFFF" d="M365.119,44.532c-2.688,2.052-14.068,20.815-19.279,20.815c-2.088,0-2.523-3.692-2.693-6.971
		c-0.087-1.645-0.347-4.31-0.347-6.77c-4.085,6.357-8.601,10.87-10.684,12.508c-2.261,1.744-5.212-1.229-5.212-6.15
		c0-4,1.994-12.201,3.041-15.586c0.347-1.127,4.254-2.052,3.993-0.409c-0.78,3.485-3.476,8.817-3.476,13.022
		c0,2.563,2.522,6.766,6.949,1.74c2.784-3.072,6.43-9.33,7.123-10.662c2.346-4.101,2.78-5.536,4.08-3.486
		c0.871,1.333-2.863,10.766-1.212,15.482c0.778,1.026,2.86,1.436,5.558-1.231c4.252-4.407,8.077-10.765,10.075-13.122
		c4.08-5.024,2.952-4.821,3.993-0.616L365.119,44.532z"/>
	<path fill="#FFFFFF" d="M397.597,56.22c-0.776,1.643-8.251,5.436-12.677,6.872c-4.432,1.332-12.942,2.359-17.547,0
		c-4.516-2.357-5.474-7.794-4.69-8.306c8.075-6.871,10.597-9.127,10.857-9.74c0.172-0.616,0.084-1.129,0.172-2.462
		c0.177-2.05,1.39-3.791,3.041-3.488c1.735,0.412,0.347,4.923,0,6.668c-0.263,1.744,2.083,7.482,2.343,10.664
		c0.353,3.179-0.607,4.409-0.26,5.025c0.26,0.611,4.866-0.105,9.645-2.052C393.344,57.35,398.294,54.581,397.597,56.22z
		 M373.542,47.607c-0.35,0.207-7.297,5.948-7.815,6.461c-0.611,0.514-0.523,5.742,3.817,8.102c4.346,2.46,5.733-2.873,5.908-4.103
		C375.712,56.015,374.062,47.403,373.542,47.607z"/>
</g>
</svg>
